<svg xmlns="http://www.w3.org/2000/svg" viewBox="0 0 400 400" width="400" height="400">
  <!-- Background -->
  <rect width="400" height="400" fill="#ffffff"/>
  
  <!-- Logo design based on your Image 2 - properly centered -->
  <g transform="translate(200, 200)">
    <!-- Main mountain crown shape -->
    <path d="M -100 50 L -60 -30 L -30 0 L 0 -50 L 30 -20 L 60 -70 L 90 -10 L 110 50 L 80 50 L 60 30 L 40 50 L 20 30 L 0 50 L -20 30 L -40 50 L -60 30 L -80 50 Z" 
          fill="none" 
          stroke="#000000" 
          stroke-width="8" 
          stroke-linejoin="round" 
          stroke-linecap="round"/>
    
    <!-- Inner mountain details -->
    <path d="M -60 20 L -35 -10 L -10 15 L 15 -25 L 40 -5 L 65 -45 L 85 -5" 
          fill="none" 
          stroke="#000000" 
          stroke-width="6" 
          stroke-linejoin="round" 
          stroke-linecap="round"/>
    
    <!-- Bottom zigzag pattern -->
    <path d="M -80 50 L -65 65 L -50 50 L -35 65 L -20 50 L -5 65 L 10 50 L 25 65 L 40 50 L 55 65 L 70 50 L 85 65 L 100 50" 
          fill="none" 
          stroke="#000000" 
          stroke-width="7" 
          stroke-linejoin="round" 
          stroke-linecap="round"/>
    
    <!-- Small circle accent -->
    <circle cx="-35" cy="5" r="6" 
            fill="none" 
            stroke="#000000" 
            stroke-width="5"/>
  </g>
</svg>